<?xml version="1.0" encoding="UTF-8"?>
<svg id="a" data-name="Layer 1" xmlns="http://www.w3.org/2000/svg" viewBox="0 0 242.84 40" preserveAspectRatio="none">
  <defs>
    <style>
      .b {
        fill:rgb(0, 0, 0);
      }
    </style>
  </defs>
  <g>
    <rect class="b" x="7.24" y="0" width="0" height="40" transform="translate(14.49 40) rotate(180)"/>
    <rect class="b" x="6.75" width="1" height="40"/>
  </g>
  <g>
    <rect class="b" x="10.01" y="0" width="0" height="40" transform="translate(20.03 40) rotate(180)"/>
    <rect class="b" x="9.41" width="1.2" height="40"/>
  </g>
  <g>
    <rect class="b" x="16.88" y="0" width="0" height="40" transform="translate(33.77 40) rotate(180)"/>
    <rect class="b" x="16.38" width="1" height="40"/>
  </g>
  <g>
    <rect class="b" x="29.68" y="0" width="0" height="40" transform="translate(59.36 40) rotate(180)"/>
    <rect class="b" x="29.18" width="1" height="40"/>
  </g>
  <g>
    <rect class="b" x="32.07" y="0" width="0" height="40" transform="translate(64.15 40) rotate(180)"/>
    <rect class="b" x="31.32" width="1.5" height="40"/>
  </g>
  <g>
    <rect class="b" x="38.22" y="0" width="0" height="40" transform="translate(76.44 40) rotate(180)"/>
    <rect class="b" x="37.72" width="1" height="40"/>
  </g>
  <g>
    <rect class="b" x="41.21" y="0" width="0" height="40" transform="translate(82.42 40) rotate(180)"/>
    <rect class="b" x="40.21" width="2" height="40"/>
  </g>
  <g>
    <rect class="b" x="47.66" y="0" width="0" height="40" transform="translate(95.33 40) rotate(180)"/>
    <rect class="b" x="46.66" width="2" height="40"/>
  </g>
  <g>
    <rect class="b" x="53.3" y="0" width="0" height="40" transform="translate(106.59 40) rotate(180)"/>
    <rect class="b" x="52.8" width="1" height="40"/>
  </g>
  <g>
    <rect class="b" x="55.93" y="0" width="0" height="40" transform="translate(111.86 40) rotate(180)"/>
    <rect class="b" x="55.3" width="1.25" height="40"/>
  </g>
  <g>
    <rect class="b" x="61.2" y="0" width="0" height="40" transform="translate(122.4 40) rotate(180)"/>
    <rect class="b" x="59.95" width="2.5" height="40"/>
  </g>
  <g>
    <rect class="b" x="66.4" y="0" width="0" height="40" transform="translate(132.81 40) rotate(180)"/>
    <rect class="b" x="65.9" width="1" height="40"/>
  </g>
  <g>
    <rect class="b" x="71.48" y="0" width="0" height="40" transform="translate(142.97 40) rotate(180)"/>
    <rect class="b" x="69.98" width="3" height="40"/>
  </g>
  <g>
    <rect class="b" x="76.36" y="0" width="0" height="40" transform="translate(152.71 40) rotate(180)"/>
    <rect class="b" x="75.86" width="1" height="40"/>
  </g>
  <g>
    <rect class="b" x="81.31" y="0" width="0" height="40" transform="translate(162.62 40) rotate(180)"/>
    <rect class="b" x="79.56" width="3.5" height="40"/>
  </g>
  <g>
    <rect class="b" x="87.09" y="0" width="0" height="40" transform="translate(174.19 40) rotate(180)"/>
    <rect class="b" x="85.59" width="3" height="40"/>
  </g>
  <g>
    <rect class="b" x="92.48" y="0" width="0" height="40" transform="translate(184.96 40) rotate(180)"/>
    <rect class="b" x="91.98" width="1" height="40"/>
  </g>
  <g>
    <rect class="b" x="96.05" y="0" width="0" height="40" transform="translate(192.09 40) rotate(180)"/>
    <rect class="b" x="95.05" width="2" height="40"/>
  </g>
  <g>
    <rect class="b" x="99.86" y="0" width="0" height="40" transform="translate(199.73 40) rotate(180)"/>
    <rect class="b" x="99.36" width="1" height="40"/>
  </g>
  <g>
    <rect class="b" x="102.81" y="0" width="0" height="40" transform="translate(205.62 40) rotate(180)"/>
    <rect class="b" x="101.31" width="3" height="40"/>
  </g>
  <g>
    <rect class="b" x="110.27" y="0" width="0" height="40" transform="translate(220.55 40) rotate(180)"/>
    <rect class="b" x="108.77" width="3" height="40"/>
  </g>
  <g>
    <rect class="b" x="116.09" y="0" width="0" height="40" transform="translate(232.18 40) rotate(180)"/>
    <rect class="b" x="115.59" width="1" height="40"/>
  </g>
  <g>
    <rect class="b" x="113.91" y="0" width="0" height="40" transform="translate(227.81 40) rotate(180)"/>
    <rect class="b" x="113.41" width="1" height="40"/>
  </g>
  <g>
    <rect class="b" x="122.08" y="0" width="0" height="40" transform="translate(244.16 40) rotate(180)"/>
    <rect class="b" x="119.58" width="5" height="40"/>
  </g>
  <g>
    <rect class="b" x="128.12" y="0" width="0" height="40" transform="translate(256.24 40) rotate(180)"/>
    <rect class="b" x="126.62" width="3" height="40"/>
  </g>
  <g>
    <rect class="b" x="133.1" y="0" width="0" height="40" transform="translate(266.21 40) rotate(180)"/>
    <rect class="b" x="132.1" width="2" height="40"/>
  </g>
  <g>
    <rect class="b" x="139.68" y="0" width="0" height="40" transform="translate(279.35 40) rotate(180)"/>
    <rect class="b" x="136.18" width="7" height="40"/>
  </g>
  <g>
    <rect class="b" x="147.91" y="0" width="0" height="40" transform="translate(295.83 40) rotate(180)"/>
    <rect class="b" x="146.41" width="3" height="40"/>
  </g>
  <g>
    <rect class="b" x="153.03" y="0" width="0" height="40" transform="translate(306.06 40) rotate(180)"/>
    <rect class="b" x="152.03" width="2" height="40"/>
  </g>
  <g>
    <rect class="b" x="158.66" y="0" width="0" height="40" transform="translate(317.32 40) rotate(180)"/>
    <rect class="b" x="156.16" width="5" height="40"/>
  </g>
  <g>
    <rect class="b" x="166.68" y="0" width="0" height="40" transform="translate(333.37 40) rotate(180)"/>
    <rect class="b" x="163.18" width="7" height="40"/>
  </g>
  <g>
    <rect class="b" x="177.95" y="0" width="0" height="40" transform="translate(355.9 40) rotate(180)"/>
    <rect class="b" x="172.45" width="11" height="40"/>
  </g>
  <g>
    <rect class="b" x="190.16" y="0" width="0" height="40" transform="translate(380.32 40) rotate(180)"/>
    <rect class="b" x="186.66" width="7" height="40"/>
  </g>
  <g>
    <rect class="b" x="198.76" y="0" width="0" height="40" transform="translate(397.52 40) rotate(180)"/>
    <rect class="b" x="195.26" width="7" height="40"/>
  </g>
  <g>
    <rect class="b" x="207.06" y="0" width="0" height="40" transform="translate(414.13 40) rotate(180)"/>
    <rect class="b" x="204.56" width="5" height="40"/>
  </g>
  <g>
    <rect class="b" x="218.44" y="0" width="0" height="40" transform="translate(436.88 40) rotate(180)"/>
    <rect class="b" x="211.44" width="14" height="40"/>
  </g>
  <g>
    <rect class="b" x="235.34" y="0" width="0" height="40" transform="translate(470.68 40) rotate(180)"/>
    <rect class="b" x="227.84" width="15" height="40"/>
  </g>
  <g>
    <rect class="b" x="20.13" y="0" width="0" height="40" transform="translate(40.26 40) rotate(180)"/>
    <rect class="b" x="19.23" width="1.8" height="40"/>
  </g>
  <g>
    <rect class="b" x="24.4" y="0" width="0" height="40" transform="translate(48.81 40) rotate(180)"/>
    <rect class="b" x="23.9" width="1" height="40"/>
  </g>
  <g>
    <rect class="b" x=".5" y="0" width="0" height="40" transform="translate(1 40) rotate(180)"/>
    <rect class="b" width="1" height="40"/>
  </g>
</svg>