<?xml version="1.0" encoding="UTF-8"?>
<svg id="a" data-name="Layer 1" xmlns="http://www.w3.org/2000/svg" viewBox="0 0 630 1258">
  <defs>
    <style>
      .b {
        stroke-width: 3px;
      }

      .b, .c {
        fill: none;
        stroke: #000;
      }

      .c {
        stroke-width: 10px;
      }

      .d {
        fill: #fff;
      }
    </style>
  </defs>
  <path class="d" d="M629,1253h0C284.37,1253,5,973.63,5,629h0C5,284.37,284.37,5,629,5"/>
  <path class="c" d="M629,1253h0C284.37,1253,5,973.63,5,629h0C5,284.37,284.37,5,629,5"/>
  <path class="b" d="M629,1192c-310.94,0-563-252.06-563-563S318.06,66,629,66"/>
  <path d="M629,884c-140.83,0-255-114.17-255-255s114.17-255,255-255"/>
  <path class="b" d="M629,967c-186.67,0-338-151.33-338-338s151.33-338,338-338"/>
  <path class="b" d="M628,1042c-225.33,0-408-185.35-408-414s182.67-414,408-414"/>
  <path class="b" d="M629,1074c-245.77,0-445-199.23-445-445s199.23-445,445-445"/>
  <path class="b" d="M630,1143c-284.43,0-515-230.57-515-515S345.57,113,630,113"/>
</svg>